<svg xmlns="http://www.w3.org/2000/svg"><defs>
        <style>
            .cls-1{fill:#fff;fill-rule:evenodd}
        </style>
    
        <style>
            .cls-1{fill:#222;opacity:.2;fill-rule:evenodd}
        </style>
    
        <style>
            .cls-1{fill:#222;opacity:.5;fill-rule:evenodd}
        </style>
    
        <style>
            .cls-1{fill:#949494;fill-rule:evenodd}
        </style>
    
        <style>
            .cls-1{fill:#000;opacity:.4;fill-rule:evenodd}
        </style>
    
        <style>
            .cls-1{fill:#fff;fill-rule:evenodd}
        </style>
    
        <style>
            .cls-1{fill:#000;opacity:.4;fill-rule:evenodd}
        </style>
    
        <style>
            .cls-1{fill:#191919;opacity:.2;fill-rule:evenodd}
        </style>
    </defs><symbol id="icon-arrow-bottom" viewBox="0 0 9.969 9.938">
    
    <path d="M9.971 4.85L4.98 9.942-.012 4.85l1.426-1.455 2.557 2.608V-.001h2.017v6.004l2.557-2.608L9.971 4.85z" class="cls-1"/>
</symbol><symbol id="icon-arrow-left" viewBox="0 0 10 10">
    
    <path d="M5.12 10.003L-.004 4.995 5.12-.012l1.464 1.431-2.625 2.565h6.042v2.023H3.959l2.625 2.565-1.464 1.431z" class="cls-1"/>
</symbol><symbol id="icon-arrow-right" viewBox="0 0 10 10">
    
    <path d="M4.88-.003l5.124 5.008-5.124 5.007-1.464-1.431 2.625-2.565H-.001V3.993h6.042L3.416 1.428 4.88-.003z" class="cls-1"/>
</symbol><symbol id="icon-clock" viewBox="0 0 13 13">
    
    <path d="M6.487.003a6.491 6.491 0 0 0-6.499 6.5c0 3.596 2.903 6.5 6.499 6.5 3.596 0 6.5-2.904 6.5-6.5s-2.904-6.5-6.5-6.5zm2.874 9.373L5.9 7.421a1.602 1.602 0 0 1-.18-.151 1.091 1.091 0 0 1-.316-.767V1.628h1.083l.993 4.333 2.648 2.649-.767.766z" class="cls-1"/>
</symbol><symbol id="icon-fb" viewBox="0 0 7.438 16">
    
    <path d="M4.942 16.014h-3.3V8h-1.65V5.238h1.65V3.58c0-2.252.931-3.593 3.576-3.593h2.203v2.762H6.045c-1.031 0-1.099.386-1.099 1.106l-.004 1.383h2.495L7.145 8H4.942v8.014z" class="cls-1"/>
</symbol><symbol id="icon-logo" viewBox="0 0 17 17">
    <path d="M15.5 10a1.5 1.5 0 1 1 0-3 1.5 1.5 0 0 1 0 3zm-3.111-5.389a1.5 1.5 0 1 1 2.122-2.122 1.5 1.5 0 0 1-2.122 2.122zM8.5 17a1.5 1.5 0 1 1 .001-3.001A1.5 1.5 0 0 1 8.5 17zm0-7a1.5 1.5 0 1 1 0-3 1.5 1.5 0 0 1 0 3zm0-7a1.5 1.5 0 1 1 .001-3.001A1.5 1.5 0 0 1 8.5 3zM2.49 14.511a1.5 1.5 0 1 1 2.122-2.122 1.5 1.5 0 0 1-2.122 2.122zm-.028-9.944A1.511 1.511 0 1 1 4.6 2.43a1.511 1.511 0 0 1-2.138 2.137zM3 8.5a1.5 1.5 0 1 1-3 0 1.5 1.5 0 0 1 3 0zm11.57 3.902a1.511 1.511 0 1 1-2.138 2.137 1.511 1.511 0 0 1 2.138-2.137z" class="cls-1"/>
</symbol><symbol id="icon-nav" viewBox="0 0 15 12">
    <path d="M0 12v-2h15v2H0zm0-7h15v2H0V5zm0-5h15v2H0V0z" class="cls-1"/>
</symbol><symbol id="icon-play" viewBox="0 0 14.313 18.53">
    
    <path d="M14.302 9.27L-.014 18.541V-.001L14.302 9.27z" class="cls-1"/>
</symbol><symbol id="icon-search" viewBox="0 0 14.38 14.875">
    <path d="M14.389 13.475l-1.414 1.414-2.076-2.076A7 7 0 1 1 14 7c0 1.699-.63 3.236-1.637 4.449l2.026 2.026zM7 2a5 5 0 1 0 0 10A5 5 0 0 0 7 2z" class="cls-1"/>
</symbol><symbol id="icon-tw" viewBox="0 0 17.5 14.32">
    
    <path d="M17.512 1.704a7.082 7.082 0 0 1-2.063.569 3.607 3.607 0 0 0 1.58-1.996 7.173 7.173 0 0 1-2.282.876 3.576 3.576 0 0 0-2.622-1.14 3.6 3.6 0 0 0-3.592 3.609c0 .282.032.558.093.822A10.18 10.18 0 0 1 1.222.674a3.606 3.606 0 0 0-.486 1.814 3.61 3.61 0 0 0 1.598 3.003A3.558 3.558 0 0 1 .707 5.04v.045a3.604 3.604 0 0 0 2.881 3.538 3.558 3.558 0 0 1-1.622.062 3.597 3.597 0 0 0 3.355 2.506 7.184 7.184 0 0 1-5.318 1.495 10.143 10.143 0 0 0 5.507 1.621c6.607 0 10.22-5.499 10.22-10.267 0-.156-.003-.312-.01-.467a7.29 7.29 0 0 0 1.792-1.869z" class="cls-1"/>
</symbol><symbol id="icon-waves" viewBox="0 0 81 7">
    
    <path d="M70.541 7l-5.007-5.162L60.527 7 55.52 1.838 50.514 7l-5.007-5.162L40.5 7l-5.007-5.162L30.486 7 25.48 1.838 20.473 7l-5.007-5.162L10.459 7 5.453 1.838.891 6.539 0 5.621 5.453 0l5.006 5.162L15.466 0l5.007 5.162L25.48 0l5.006 5.162L35.493 0 40.5 5.162 45.507 0l5.007 5.162L55.52 0l5.007 5.162L65.534 0l5.007 5.162L75.547 0 81 5.621l-.892.918-4.561-4.701L70.541 7z" class="cls-1"/>
</symbol></svg>