<svg xmlns="http://www.w3.org/2000/svg" xmlns:xlink="http://www.w3.org/1999/xlink" preserveAspectRatio="xMidYMid" width="17.5" height="14.32" viewBox="0 0 17.5 14.32">
  <defs>
    <style>
      .cls-1 {
        fill: #000;
        opacity: 0.4;
        fill-rule: evenodd;
      }
    </style>
  </defs>
  <path d="M17.512,1.704 C16.868,1.992 16.176,2.187 15.449,2.273 C16.191,1.827 16.761,1.121 17.029,0.277 C16.334,0.691 15.566,0.991 14.747,1.153 C14.092,0.451 13.159,0.013 12.125,0.013 C10.141,0.013 8.533,1.629 8.533,3.622 C8.533,3.904 8.565,4.180 8.626,4.444 C5.641,4.295 2.994,2.857 1.222,0.674 C0.913,1.207 0.736,1.827 0.736,2.488 C0.736,3.740 1.370,4.844 2.334,5.491 C1.745,5.472 1.191,5.311 0.707,5.040 C0.707,5.055 0.707,5.070 0.707,5.085 C0.707,6.834 1.945,8.293 3.588,8.623 C3.287,8.706 2.969,8.750 2.642,8.750 C2.410,8.750 2.185,8.728 1.966,8.685 C2.423,10.119 3.750,11.162 5.321,11.191 C4.092,12.159 2.543,12.736 0.860,12.736 C0.570,12.736 0.284,12.719 0.003,12.686 C1.593,13.709 3.481,14.307 5.510,14.307 C12.117,14.307 15.730,8.808 15.730,4.040 C15.730,3.884 15.727,3.728 15.720,3.573 C16.422,3.064 17.031,2.429 17.512,1.704 Z" class="cls-1"/>
</svg>
