<svg xmlns="http://www.w3.org/2000/svg" xmlns:xlink="http://www.w3.org/1999/xlink" preserveAspectRatio="xMidYMid" width="81" height="7" viewBox="0 0 81 7">
  <defs>
    <style>
      .cls-1 {
        fill: #191919;
        opacity: 0.2;
        fill-rule: evenodd;
      }
    </style>
  </defs>
  <path d="M70.541,7.000 L65.534,1.838 L60.527,7.000 L55.520,1.838 L50.514,7.000 L45.507,1.838 L40.500,7.000 L35.493,1.838 L30.486,7.000 L25.480,1.838 L20.473,7.000 L15.466,1.838 L10.459,7.000 L5.453,1.838 L0.891,6.539 L-0.000,5.621 L5.453,-0.000 L10.459,5.162 L15.466,-0.000 L20.473,5.162 L25.480,-0.000 L30.486,5.162 L35.493,-0.000 L40.500,5.162 L45.507,-0.000 L50.514,5.162 L55.520,-0.000 L60.527,5.162 L65.534,-0.000 L70.541,5.162 L75.547,-0.000 L81.000,5.621 L80.108,6.539 L75.547,1.838 L70.541,7.000 Z" class="cls-1"/>
</svg>
